<svg xmlns="http://www.w3.org/2000/svg" xmlns:xlink="http://www.w3.org/1999/xlink" id="svg3253" width="110.652" height="84.3" version="1.0"><defs id="defs3255"><radialGradient xlink:href="#linearGradient3252" id="radialGradient4051" cx="278.534" cy="12.798" r="7.387" fx="278.534" fy="12.798" gradientTransform="matrix(1.66684 .25023 -.43535 1.44245 -180.072 -76.258)" gradientUnits="userSpaceOnUse"/><radialGradient xlink:href="#linearGradient3384" id="radialGradient4053" cx="305.977" cy="4.695" r="8.921" fx="305.977" fy="4.695" gradientUnits="userSpaceOnUse"/><radialGradient xlink:href="#linearGradient3252" id="radialGradient4055" cx="278.534" cy="12.798" r="7.387" fx="278.534" fy="12.798" gradientTransform="matrix(1.66684 .25023 -.43535 1.44245 -180.072 -76.258)" gradientUnits="userSpaceOnUse"/><radialGradient xlink:href="#linearGradient3206" id="radialGradient4057" cx="302.831" cy="4.695" r="8.921" fx="302.831" fy="4.695" gradientUnits="userSpaceOnUse"/><radialGradient xlink:href="#linearGradient3228" id="radialGradient4059" cx="537.754" cy="228.65" r=".746" fx="537.754" fy="228.65" gradientTransform="matrix(-.78797 .51073 -2.04519 -3.15542 1235.738 709.111)" gradientUnits="userSpaceOnUse"/><radialGradient xlink:href="#linearGradient3216" id="radialGradient4061" cx="302.831" cy="4.695" r="8.921" fx="302.831" fy="4.695" gradientUnits="userSpaceOnUse"/><radialGradient xlink:href="#linearGradient3228" id="radialGradient4063" cx="537.754" cy="228.65" r=".746" fx="537.754" fy="228.65" gradientTransform="matrix(1.6289 -1.24734 4.99492 6.52288 -1652.775 -572.897)" gradientUnits="userSpaceOnUse"/><linearGradient id="linearGradient3228"><stop id="stop3230" offset="0" style="stop-color:#fff;stop-opacity:1"/><stop id="stop3232" offset="1" style="stop-color:#fff;stop-opacity:0"/></linearGradient><linearGradient id="linearGradient3216"><stop id="stop3218" offset="0" style="stop-color:#d43500;stop-opacity:1"/><stop id="stop3242" offset=".481" style="stop-color:#d42400;stop-opacity:1"/><stop id="stop3224" offset=".736" style="stop-color:#d40000;stop-opacity:1"/><stop id="stop3236" offset="1" style="stop-color:#b20000;stop-opacity:1"/></linearGradient><linearGradient id="linearGradient3206"><stop id="stop3214" offset="0" style="stop-color:#7f0000;stop-opacity:1"/><stop id="stop3828" offset=".667" style="stop-color:#840000;stop-opacity:.498039"/><stop id="stop3210" offset="1" style="stop-color:#000;stop-opacity:0"/></linearGradient><linearGradient id="linearGradient3384"><stop id="stop3386" offset="0" style="stop-color:#f60000;stop-opacity:1"/><stop id="stop3388" offset="1" style="stop-color:#b30000;stop-opacity:1"/></linearGradient><filter id="filter3372" width="1.329" height="1.427" x="-.164" y="-.213"><feGaussianBlur id="feGaussianBlur3374" stdDeviation="1.241"/></filter><filter id="filter4036"><feGaussianBlur id="feGaussianBlur4038" stdDeviation=".527"/></filter></defs><g id="layer1" transform="translate(-352.525 -462.424)"><g id="g3244" transform="translate(27.292 274.082)"><g id="g4040" transform="matrix(2.83536 0 0 2.83536 -582.536 -496.943)"><path id="path3250" d="M286.176 14.557a7.387 8.466 0 1 1-14.774 0 7.387 8.466 0 1 1 14.774 0" style="opacity:.745192;fill:url(#radialGradient4051);fill-opacity:1;stroke:none;stroke-width:.829px;stroke-miterlimit:4;stroke-dasharray:none;stroke-opacity:1;filter:url(#filter4036)" transform="matrix(.74572 1.24355 -1.40183 .67799 145.752 -95.966)"/><g id="g3934" transform="translate(-8.035 -1.722)"><path id="path3202" d="M311.752 4.695a8.92 8.92 0 1 1-17.842 0 8.92 8.92 0 1 1 17.842 0" style="fill:url(#radialGradient4053);fill-opacity:1;stroke:none;stroke-width:.829px;stroke-miterlimit:4;stroke-dasharray:none;stroke-opacity:1" transform="matrix(1.21372 0 0 1.21372 -14.363 252.217)"/><path id="path3474" d="M286.176 14.557a7.387 8.466 0 1 1-14.774 0 7.387 8.466 0 1 1 14.774 0" style="opacity:.418269;fill:url(#radialGradient4055);fill-opacity:1;stroke:none;stroke-width:.829px;stroke-miterlimit:4;stroke-dasharray:none;stroke-opacity:1;filter:url(#filter3372)" transform="matrix(.43828 .73087 -.8239 .39847 239.302 48.621)"/><path id="path3468" d="M311.752 4.695a8.92 8.92 0 1 1-17.842 0 8.92 8.92 0 1 1 17.842 0" style="fill:url(#radialGradient4057);fill-opacity:1;stroke:none;stroke-width:.829px;stroke-miterlimit:4;stroke-dasharray:none;stroke-opacity:1" transform="translate(127.833 252.197)scale(.74879)"/><path id="path3478" d="M345.619 263.569c-1.25-.998-1.586-1.564-1.396-2.712.542 1.487 1.34 2.627 1.396 2.712" style="fill:url(#radialGradient4059);fill-opacity:1;fill-rule:evenodd;stroke:none;stroke-width:1px;stroke-linecap:butt;stroke-linejoin:miter;stroke-opacity:1"/></g><g id="g3930" transform="translate(-8.035 -1.722)"><path id="path3204" d="M311.752 4.695a8.92 8.92 0 1 1-17.842 0 8.92 8.92 0 1 1 17.842 0" style="fill:url(#radialGradient4061);fill-opacity:1;stroke:none;stroke-width:.829px;stroke-miterlimit:4;stroke-dasharray:none;stroke-opacity:1" transform="matrix(.9414 0 0 .9414 73.738 247.392)"/><path id="path3226" d="M362.32 245.18c2.892 1.961 3.722 3.135 3.504 5.668-1.435-3.146-3.37-5.492-3.504-5.667" style="fill:url(#radialGradient4063);fill-opacity:1;fill-rule:evenodd;stroke:none;stroke-width:1px;stroke-linecap:butt;stroke-linejoin:miter;stroke-opacity:1"/></g></g></g></g></svg>